%TF.GenerationSoftware,KiCad,Pcbnew,9.0.6*%
%TF.CreationDate,2026-01-24T13:35:08-03:00*%
%TF.ProjectId,macropadmaluu,6d616372-6f70-4616-946d-616c75752e6b,rev?*%
%TF.SameCoordinates,Original*%
%TF.FileFunction,Soldermask,Top*%
%TF.FilePolarity,Negative*%
%FSLAX46Y46*%
G04 Gerber Fmt 4.6, Leading zero omitted, Abs format (unit mm)*
G04 Created by KiCad (PCBNEW 9.0.6) date 2026-01-24 13:35:08*
%MOMM*%
%LPD*%
G01*
G04 APERTURE LIST*
G04 Aperture macros list*
%AMRoundRect*
0 Rectangle with rounded corners*
0 $1 Rounding radius*
0 $2 $3 $4 $5 $6 $7 $8 $9 X,Y pos of 4 corners*
0 Add a 4 corners polygon primitive as box body*
4,1,4,$2,$3,$4,$5,$6,$7,$8,$9,$2,$3,0*
0 Add four circle primitives for the rounded corners*
1,1,$1+$1,$2,$3*
1,1,$1+$1,$4,$5*
1,1,$1+$1,$6,$7*
1,1,$1+$1,$8,$9*
0 Add four rect primitives between the rounded corners*
20,1,$1+$1,$2,$3,$4,$5,0*
20,1,$1+$1,$4,$5,$6,$7,0*
20,1,$1+$1,$6,$7,$8,$9,0*
20,1,$1+$1,$8,$9,$2,$3,0*%
G04 Aperture macros list end*
%ADD10C,1.700000*%
%ADD11C,4.000000*%
%ADD12C,2.200000*%
%ADD13C,1.600000*%
%ADD14R,1.800000X1.800000*%
%ADD15C,1.800000*%
%ADD16RoundRect,0.152400X-0.609600X1.063600X-0.609600X-1.063600X0.609600X-1.063600X0.609600X1.063600X0*%
%ADD17C,1.524000*%
%ADD18RoundRect,0.152400X0.609600X-1.063600X0.609600X1.063600X-0.609600X1.063600X-0.609600X-1.063600X0*%
%ADD19R,1.000000X1.500000*%
%ADD20R,2.000000X2.000000*%
%ADD21C,2.000000*%
%ADD22R,2.000000X3.200000*%
G04 APERTURE END LIST*
D10*
%TO.C,SW4*%
X188118750Y-112236250D03*
D11*
X188118750Y-107156250D03*
D10*
X188118750Y-102076250D03*
D12*
X183038750Y-104616250D03*
X185578750Y-110966250D03*
%TD*%
D10*
%TO.C,SW3*%
X188118750Y-93186250D03*
D11*
X188118750Y-88106250D03*
D10*
X188118750Y-83026250D03*
D12*
X183038750Y-85566250D03*
X185578750Y-91916250D03*
%TD*%
D13*
%TO.C,R2*%
X146690000Y-85880000D03*
X146690000Y-78260000D03*
%TD*%
D14*
%TO.C,D1*%
X142090000Y-115040000D03*
D15*
X142090000Y-112500000D03*
%TD*%
D10*
%TO.C,SW6*%
X207168750Y-112236250D03*
D11*
X207168750Y-107156250D03*
D10*
X207168750Y-102076250D03*
D12*
X202088750Y-104616250D03*
X204628750Y-110966250D03*
%TD*%
D13*
%TO.C,R1*%
X146690000Y-117240000D03*
X146690000Y-109620000D03*
%TD*%
D14*
%TO.C,D2*%
X141200000Y-83540000D03*
D15*
X141200000Y-81000000D03*
%TD*%
D10*
%TO.C,SW1*%
X169068750Y-93186250D03*
D11*
X169068750Y-88106250D03*
D10*
X169068750Y-83026250D03*
D12*
X163988750Y-85566250D03*
X166528750Y-91916250D03*
%TD*%
D10*
%TO.C,SW2*%
X169068750Y-112236250D03*
D11*
X169068750Y-107156250D03*
D10*
X169068750Y-102076250D03*
D12*
X163988750Y-104616250D03*
X166528750Y-110966250D03*
%TD*%
D16*
%TO.C,U1*%
X124640000Y-104695000D03*
D17*
X124640000Y-103860000D03*
D16*
X127180000Y-104695000D03*
D17*
X127180000Y-103860000D03*
D16*
X129720000Y-104695000D03*
D17*
X129720000Y-103860000D03*
D16*
X132260000Y-104695000D03*
D17*
X132260000Y-103860000D03*
D16*
X134800000Y-104695000D03*
D17*
X134800000Y-103860000D03*
D16*
X137340000Y-104695000D03*
D17*
X137340000Y-103860000D03*
D16*
X139880000Y-104695000D03*
D17*
X139880000Y-103860000D03*
X139880000Y-88620000D03*
D18*
X139880000Y-87785000D03*
D17*
X137340000Y-88620000D03*
D18*
X137340000Y-87785000D03*
D17*
X134800000Y-88620000D03*
D18*
X134800000Y-87785000D03*
D17*
X132260000Y-88620000D03*
D18*
X132260000Y-87785000D03*
D17*
X129720000Y-88620000D03*
D18*
X129720000Y-87785000D03*
D17*
X127180000Y-88620000D03*
D18*
X127180000Y-87785000D03*
D17*
X124640000Y-88620000D03*
D18*
X124640000Y-87785000D03*
%TD*%
D10*
%TO.C,SW5*%
X207168750Y-93186250D03*
D11*
X207168750Y-88106250D03*
D10*
X207168750Y-83026250D03*
D12*
X202088750Y-85566250D03*
X204628750Y-91916250D03*
%TD*%
D19*
%TO.C,D4*%
X152630000Y-115790000D03*
X155830000Y-115790000D03*
X155830000Y-110890000D03*
X152630000Y-110890000D03*
%TD*%
D20*
%TO.C,SW7*%
X148140000Y-104220000D03*
D21*
X153140000Y-104220000D03*
X150640000Y-104220000D03*
D22*
X145040000Y-96720000D03*
X156240000Y-96720000D03*
D21*
X153140000Y-89720000D03*
X148140000Y-89720000D03*
%TD*%
D19*
%TO.C,D3*%
X152760000Y-84390000D03*
X155960000Y-84390000D03*
X155960000Y-79490000D03*
X152760000Y-79490000D03*
%TD*%
M02*
