%TF.GenerationSoftware,KiCad,Pcbnew,9.0.6*%
%TF.CreationDate,2026-01-24T13:35:07-03:00*%
%TF.ProjectId,macropadmaluu,6d616372-6f70-4616-946d-616c75752e6b,rev?*%
%TF.SameCoordinates,Original*%
%TF.FileFunction,Copper,L2,Bot*%
%TF.FilePolarity,Positive*%
%FSLAX46Y46*%
G04 Gerber Fmt 4.6, Leading zero omitted, Abs format (unit mm)*
G04 Created by KiCad (PCBNEW 9.0.6) date 2026-01-24 13:35:07*
%MOMM*%
%LPD*%
G01*
G04 APERTURE LIST*
%TA.AperFunction,ComponentPad*%
%ADD10C,2.200000*%
%TD*%
%TA.AperFunction,ComponentPad*%
%ADD11C,1.600000*%
%TD*%
%TA.AperFunction,ComponentPad*%
%ADD12R,1.800000X1.800000*%
%TD*%
%TA.AperFunction,ComponentPad*%
%ADD13C,1.800000*%
%TD*%
%TA.AperFunction,ComponentPad*%
%ADD14C,1.524000*%
%TD*%
%TA.AperFunction,ComponentPad*%
%ADD15R,2.000000X2.000000*%
%TD*%
%TA.AperFunction,ComponentPad*%
%ADD16C,2.000000*%
%TD*%
%TA.AperFunction,ComponentPad*%
%ADD17R,2.000000X3.200000*%
%TD*%
%TA.AperFunction,ViaPad*%
%ADD18C,0.600000*%
%TD*%
%TA.AperFunction,Conductor*%
%ADD19C,0.200000*%
%TD*%
G04 APERTURE END LIST*
D10*
%TO.P,SW4,1,1*%
%TO.N,GND*%
X183038750Y-104616250D03*
%TO.P,SW4,2,2*%
%TO.N,Net-(U1-GPIO3{slash}MOSI)*%
X185578750Y-110966250D03*
%TD*%
%TO.P,SW3,1,1*%
%TO.N,GND*%
X183038750Y-85566250D03*
%TO.P,SW3,2,2*%
%TO.N,Net-(U1-GPIO4{slash}MISO)*%
X185578750Y-91916250D03*
%TD*%
D11*
%TO.P,R2,1*%
%TO.N,Net-(U1-3V3)*%
X146690000Y-85880000D03*
%TO.P,R2,2*%
%TO.N,Net-(D2-A)*%
X146690000Y-78260000D03*
%TD*%
D12*
%TO.P,D1,1,K*%
%TO.N,GND*%
X142090000Y-115040000D03*
D13*
%TO.P,D1,2,A*%
%TO.N,Net-(D1-A)*%
X142090000Y-112500000D03*
%TD*%
D10*
%TO.P,SW6,1,1*%
%TO.N,GND*%
X202088750Y-104616250D03*
%TO.P,SW6,2,2*%
%TO.N,Net-(U1-GPIO0{slash}TX)*%
X204628750Y-110966250D03*
%TD*%
D11*
%TO.P,R1,1*%
%TO.N,Net-(U1-3V3)*%
X146690000Y-117240000D03*
%TO.P,R1,2*%
%TO.N,Net-(D1-A)*%
X146690000Y-109620000D03*
%TD*%
D12*
%TO.P,D2,1,K*%
%TO.N,GND*%
X141200000Y-83540000D03*
D13*
%TO.P,D2,2,A*%
%TO.N,Net-(D2-A)*%
X141200000Y-81000000D03*
%TD*%
D10*
%TO.P,SW1,1,1*%
%TO.N,GND*%
X163988750Y-85566250D03*
%TO.P,SW1,2,2*%
%TO.N,Net-(U1-GPIO1{slash}RX)*%
X166528750Y-91916250D03*
%TD*%
%TO.P,SW2,1,1*%
%TO.N,GND*%
X163988750Y-104616250D03*
%TO.P,SW2,2,2*%
%TO.N,Net-(U1-GPIO2{slash}SCK)*%
X166528750Y-110966250D03*
%TD*%
D14*
%TO.P,U1,1,GPIO26/ADC0/A0*%
%TO.N,Net-(U1-GPIO26{slash}ADC0{slash}A0)*%
X124640000Y-103860000D03*
%TO.P,U1,2,GPIO27/ADC1/A1*%
%TO.N,Net-(U1-GPIO27{slash}ADC1{slash}A1)*%
X127180000Y-103860000D03*
%TO.P,U1,3,GPIO28/ADC2/A2*%
%TO.N,Net-(U1-GPIO28{slash}ADC2{slash}A2)*%
X129720000Y-103860000D03*
%TO.P,U1,4,GPIO29/ADC3/A3*%
%TO.N,unconnected-(U1-GPIO29{slash}ADC3{slash}A3-Pad4)_1*%
X132260000Y-103860000D03*
%TO.P,U1,5,GPIO6/SDA*%
%TO.N,Net-(D3-DIN)*%
X134800000Y-103860000D03*
%TO.P,U1,6,GPIO7/SCL*%
%TO.N,Net-(U1-GPIO7{slash}SCL)*%
X137340000Y-103860000D03*
%TO.P,U1,7,GPIO0/TX*%
%TO.N,Net-(U1-GPIO0{slash}TX)*%
X139880000Y-103860000D03*
%TO.P,U1,8,GPIO1/RX*%
%TO.N,Net-(U1-GPIO1{slash}RX)*%
X139880000Y-88620000D03*
%TO.P,U1,9,GPIO2/SCK*%
%TO.N,Net-(U1-GPIO2{slash}SCK)*%
X137340000Y-88620000D03*
%TO.P,U1,10,GPIO4/MISO*%
%TO.N,Net-(U1-GPIO4{slash}MISO)*%
X134800000Y-88620000D03*
%TO.P,U1,11,GPIO3/MOSI*%
%TO.N,Net-(U1-GPIO3{slash}MOSI)*%
X132260000Y-88620000D03*
%TO.P,U1,12,3V3*%
%TO.N,Net-(U1-3V3)*%
X129720000Y-88620000D03*
%TO.P,U1,13,GND*%
%TO.N,GND*%
X127180000Y-88620000D03*
%TO.P,U1,14,VBUS*%
%TO.N,+5V*%
X124640000Y-88620000D03*
%TD*%
D10*
%TO.P,SW5,1,1*%
%TO.N,GND*%
X202088750Y-85566250D03*
%TO.P,SW5,2,2*%
%TO.N,Net-(U1-GPIO7{slash}SCL)*%
X204628750Y-91916250D03*
%TD*%
D15*
%TO.P,SW7,A,A*%
%TO.N,Net-(U1-GPIO26{slash}ADC0{slash}A0)*%
X148140000Y-104220000D03*
D16*
%TO.P,SW7,B,B*%
%TO.N,Net-(U1-GPIO27{slash}ADC1{slash}A1)*%
X153140000Y-104220000D03*
%TO.P,SW7,C,C*%
%TO.N,GND*%
X150640000Y-104220000D03*
D17*
%TO.P,SW7,MP*%
%TO.N,N/C*%
X145040000Y-96720000D03*
X156240000Y-96720000D03*
D16*
%TO.P,SW7,S1,S1*%
%TO.N,Net-(U1-GPIO28{slash}ADC2{slash}A2)*%
X153140000Y-89720000D03*
%TO.P,SW7,S2,S2*%
%TO.N,GND*%
X148140000Y-89720000D03*
%TD*%
D18*
%TO.N,GND*%
X154030000Y-85910000D03*
%TO.N,Net-(U1-GPIO28{slash}ADC2{slash}A2)*%
X140910000Y-90080000D03*
X136070000Y-108110000D03*
%TD*%
D19*
%TO.N,GND*%
X154373750Y-85566250D02*
X154030000Y-85910000D01*
X162291500Y-102919000D02*
X151941000Y-102919000D01*
X132260000Y-83540000D02*
X127180000Y-88620000D01*
X151941000Y-102919000D02*
X150640000Y-104220000D01*
X163988750Y-85566250D02*
X154373750Y-85566250D01*
X154030000Y-85910000D02*
X153970000Y-85970000D01*
X163988750Y-104616250D02*
X162291500Y-102919000D01*
X141200000Y-83540000D02*
X132260000Y-83540000D01*
%TO.N,Net-(U1-GPIO1{slash}RX)*%
X162169500Y-87557000D02*
X140943000Y-87557000D01*
X166528750Y-91916250D02*
X162169500Y-87557000D01*
X140943000Y-87557000D02*
X139880000Y-88620000D01*
%TO.N,Net-(U1-GPIO2{slash}SCK)*%
X136277000Y-94140310D02*
X131197000Y-89060310D01*
X133323000Y-88179690D02*
X133323000Y-89060310D01*
X136277000Y-104300310D02*
X136277000Y-94140310D01*
X131197000Y-89060310D02*
X131197000Y-88179690D01*
X131819690Y-87557000D02*
X132700310Y-87557000D01*
X166528750Y-110966250D02*
X142942940Y-110966250D01*
X136120000Y-89840000D02*
X137340000Y-88620000D01*
X134102690Y-89840000D02*
X136120000Y-89840000D01*
X133323000Y-89060310D02*
X134102690Y-89840000D01*
X132700310Y-87557000D02*
X133323000Y-88179690D01*
X131197000Y-88179690D02*
X131819690Y-87557000D01*
X142942940Y-110966250D02*
X136277000Y-104300310D01*
%TO.N,Net-(U1-GPIO4{slash}MISO)*%
X136264000Y-87156000D02*
X134800000Y-88620000D01*
X185578750Y-91916250D02*
X169518064Y-91916250D01*
X169518064Y-91916250D02*
X164757814Y-87156000D01*
X164757814Y-87156000D02*
X136264000Y-87156000D01*
%TO.N,Net-(U1-GPIO3{slash}MOSI)*%
X185578750Y-110966250D02*
X183597436Y-110966250D01*
X183597436Y-110966250D02*
X163652186Y-91021000D01*
X163652186Y-91021000D02*
X134661000Y-91021000D01*
X134661000Y-91021000D02*
X132260000Y-88620000D01*
%TO.N,Net-(U1-GPIO7{slash}SCL)*%
X184998436Y-108404622D02*
X186979750Y-110385936D01*
X140690000Y-100510000D02*
X137340000Y-103860000D01*
X204628750Y-91916250D02*
X187560064Y-91916250D01*
X187560064Y-91916250D02*
X184998436Y-94477878D01*
X186159064Y-112367250D02*
X184431336Y-112367250D01*
X184998436Y-94477878D02*
X184998436Y-108404622D01*
X172574086Y-100510000D02*
X140690000Y-100510000D01*
X186979750Y-111546564D02*
X186159064Y-112367250D01*
X186979750Y-110385936D02*
X186979750Y-111546564D01*
X184431336Y-112367250D02*
X172574086Y-100510000D01*
%TO.N,Net-(U1-3V3)*%
X132460000Y-85880000D02*
X129720000Y-88620000D01*
X146690000Y-85880000D02*
X132460000Y-85880000D01*
%TO.N,Net-(U1-GPIO28{slash}ADC2{slash}A2)*%
X151839000Y-88419000D02*
X142571000Y-88419000D01*
X153140000Y-89720000D02*
X151839000Y-88419000D01*
X133970000Y-108110000D02*
X129720000Y-103860000D01*
X136070000Y-108110000D02*
X133970000Y-108110000D01*
X142571000Y-88419000D02*
X140910000Y-90080000D01*
%TD*%
M02*
