%TF.GenerationSoftware,KiCad,Pcbnew,9.0.6*%
%TF.CreationDate,2026-01-24T13:35:07-03:00*%
%TF.ProjectId,macropadmaluu,6d616372-6f70-4616-946d-616c75752e6b,rev?*%
%TF.SameCoordinates,Original*%
%TF.FileFunction,Copper,L1,Top*%
%TF.FilePolarity,Positive*%
%FSLAX46Y46*%
G04 Gerber Fmt 4.6, Leading zero omitted, Abs format (unit mm)*
G04 Created by KiCad (PCBNEW 9.0.6) date 2026-01-24 13:35:07*
%MOMM*%
%LPD*%
G01*
G04 APERTURE LIST*
G04 Aperture macros list*
%AMRoundRect*
0 Rectangle with rounded corners*
0 $1 Rounding radius*
0 $2 $3 $4 $5 $6 $7 $8 $9 X,Y pos of 4 corners*
0 Add a 4 corners polygon primitive as box body*
4,1,4,$2,$3,$4,$5,$6,$7,$8,$9,$2,$3,0*
0 Add four circle primitives for the rounded corners*
1,1,$1+$1,$2,$3*
1,1,$1+$1,$4,$5*
1,1,$1+$1,$6,$7*
1,1,$1+$1,$8,$9*
0 Add four rect primitives between the rounded corners*
20,1,$1+$1,$2,$3,$4,$5,0*
20,1,$1+$1,$4,$5,$6,$7,0*
20,1,$1+$1,$6,$7,$8,$9,0*
20,1,$1+$1,$8,$9,$2,$3,0*%
G04 Aperture macros list end*
%TA.AperFunction,ComponentPad*%
%ADD10C,2.200000*%
%TD*%
%TA.AperFunction,ComponentPad*%
%ADD11C,1.600000*%
%TD*%
%TA.AperFunction,ComponentPad*%
%ADD12R,1.800000X1.800000*%
%TD*%
%TA.AperFunction,ComponentPad*%
%ADD13C,1.800000*%
%TD*%
%TA.AperFunction,SMDPad,CuDef*%
%ADD14RoundRect,0.152400X-0.609600X1.063600X-0.609600X-1.063600X0.609600X-1.063600X0.609600X1.063600X0*%
%TD*%
%TA.AperFunction,ComponentPad*%
%ADD15C,1.524000*%
%TD*%
%TA.AperFunction,SMDPad,CuDef*%
%ADD16RoundRect,0.152400X0.609600X-1.063600X0.609600X1.063600X-0.609600X1.063600X-0.609600X-1.063600X0*%
%TD*%
%TA.AperFunction,SMDPad,CuDef*%
%ADD17R,1.000000X1.500000*%
%TD*%
%TA.AperFunction,ComponentPad*%
%ADD18R,2.000000X2.000000*%
%TD*%
%TA.AperFunction,ComponentPad*%
%ADD19C,2.000000*%
%TD*%
%TA.AperFunction,ComponentPad*%
%ADD20R,2.000000X3.200000*%
%TD*%
%TA.AperFunction,ViaPad*%
%ADD21C,0.600000*%
%TD*%
%TA.AperFunction,Conductor*%
%ADD22C,0.200000*%
%TD*%
G04 APERTURE END LIST*
D10*
%TO.P,SW4,1,1*%
%TO.N,GND*%
X183038750Y-104616250D03*
%TO.P,SW4,2,2*%
%TO.N,Net-(U1-GPIO3{slash}MOSI)*%
X185578750Y-110966250D03*
%TD*%
%TO.P,SW3,1,1*%
%TO.N,GND*%
X183038750Y-85566250D03*
%TO.P,SW3,2,2*%
%TO.N,Net-(U1-GPIO4{slash}MISO)*%
X185578750Y-91916250D03*
%TD*%
D11*
%TO.P,R2,1*%
%TO.N,Net-(U1-3V3)*%
X146690000Y-85880000D03*
%TO.P,R2,2*%
%TO.N,Net-(D2-A)*%
X146690000Y-78260000D03*
%TD*%
D12*
%TO.P,D1,1,K*%
%TO.N,GND*%
X142090000Y-115040000D03*
D13*
%TO.P,D1,2,A*%
%TO.N,Net-(D1-A)*%
X142090000Y-112500000D03*
%TD*%
D10*
%TO.P,SW6,1,1*%
%TO.N,GND*%
X202088750Y-104616250D03*
%TO.P,SW6,2,2*%
%TO.N,Net-(U1-GPIO0{slash}TX)*%
X204628750Y-110966250D03*
%TD*%
D11*
%TO.P,R1,1*%
%TO.N,Net-(U1-3V3)*%
X146690000Y-117240000D03*
%TO.P,R1,2*%
%TO.N,Net-(D1-A)*%
X146690000Y-109620000D03*
%TD*%
D12*
%TO.P,D2,1,K*%
%TO.N,GND*%
X141200000Y-83540000D03*
D13*
%TO.P,D2,2,A*%
%TO.N,Net-(D2-A)*%
X141200000Y-81000000D03*
%TD*%
D10*
%TO.P,SW1,1,1*%
%TO.N,GND*%
X163988750Y-85566250D03*
%TO.P,SW1,2,2*%
%TO.N,Net-(U1-GPIO1{slash}RX)*%
X166528750Y-91916250D03*
%TD*%
%TO.P,SW2,1,1*%
%TO.N,GND*%
X163988750Y-104616250D03*
%TO.P,SW2,2,2*%
%TO.N,Net-(U1-GPIO2{slash}SCK)*%
X166528750Y-110966250D03*
%TD*%
D14*
%TO.P,U1,1,GPIO26/ADC0/A0*%
%TO.N,Net-(U1-GPIO26{slash}ADC0{slash}A0)*%
X124640000Y-104695000D03*
D15*
X124640000Y-103860000D03*
D14*
%TO.P,U1,2,GPIO27/ADC1/A1*%
%TO.N,Net-(U1-GPIO27{slash}ADC1{slash}A1)*%
X127180000Y-104695000D03*
D15*
X127180000Y-103860000D03*
D14*
%TO.P,U1,3,GPIO28/ADC2/A2*%
%TO.N,Net-(U1-GPIO28{slash}ADC2{slash}A2)*%
X129720000Y-104695000D03*
D15*
X129720000Y-103860000D03*
D14*
%TO.P,U1,4,GPIO29/ADC3/A3*%
%TO.N,unconnected-(U1-GPIO29{slash}ADC3{slash}A3-Pad4)*%
X132260000Y-104695000D03*
D15*
%TO.N,unconnected-(U1-GPIO29{slash}ADC3{slash}A3-Pad4)_1*%
X132260000Y-103860000D03*
D14*
%TO.P,U1,5,GPIO6/SDA*%
%TO.N,Net-(D3-DIN)*%
X134800000Y-104695000D03*
D15*
X134800000Y-103860000D03*
D14*
%TO.P,U1,6,GPIO7/SCL*%
%TO.N,Net-(U1-GPIO7{slash}SCL)*%
X137340000Y-104695000D03*
D15*
X137340000Y-103860000D03*
D14*
%TO.P,U1,7,GPIO0/TX*%
%TO.N,Net-(U1-GPIO0{slash}TX)*%
X139880000Y-104695000D03*
D15*
X139880000Y-103860000D03*
%TO.P,U1,8,GPIO1/RX*%
%TO.N,Net-(U1-GPIO1{slash}RX)*%
X139880000Y-88620000D03*
D16*
X139880000Y-87785000D03*
D15*
%TO.P,U1,9,GPIO2/SCK*%
%TO.N,Net-(U1-GPIO2{slash}SCK)*%
X137340000Y-88620000D03*
D16*
X137340000Y-87785000D03*
D15*
%TO.P,U1,10,GPIO4/MISO*%
%TO.N,Net-(U1-GPIO4{slash}MISO)*%
X134800000Y-88620000D03*
D16*
X134800000Y-87785000D03*
D15*
%TO.P,U1,11,GPIO3/MOSI*%
%TO.N,Net-(U1-GPIO3{slash}MOSI)*%
X132260000Y-88620000D03*
D16*
X132260000Y-87785000D03*
D15*
%TO.P,U1,12,3V3*%
%TO.N,Net-(U1-3V3)*%
X129720000Y-88620000D03*
D16*
X129720000Y-87785000D03*
D15*
%TO.P,U1,13,GND*%
%TO.N,GND*%
X127180000Y-88620000D03*
D16*
X127180000Y-87785000D03*
D15*
%TO.P,U1,14,VBUS*%
%TO.N,+5V*%
X124640000Y-88620000D03*
D16*
X124640000Y-87785000D03*
%TD*%
D10*
%TO.P,SW5,1,1*%
%TO.N,GND*%
X202088750Y-85566250D03*
%TO.P,SW5,2,2*%
%TO.N,Net-(U1-GPIO7{slash}SCL)*%
X204628750Y-91916250D03*
%TD*%
D17*
%TO.P,D4,1,VSS*%
%TO.N,GND*%
X152630000Y-115790000D03*
%TO.P,D4,2,DIN*%
%TO.N,Net-(D3-DOUT)*%
X155830000Y-115790000D03*
%TO.P,D4,3,VDD*%
%TO.N,+5V*%
X155830000Y-110890000D03*
%TO.P,D4,4,DOUT*%
%TO.N,unconnected-(D4-DOUT-Pad4)*%
X152630000Y-110890000D03*
%TD*%
D18*
%TO.P,SW7,A,A*%
%TO.N,Net-(U1-GPIO26{slash}ADC0{slash}A0)*%
X148140000Y-104220000D03*
D19*
%TO.P,SW7,B,B*%
%TO.N,Net-(U1-GPIO27{slash}ADC1{slash}A1)*%
X153140000Y-104220000D03*
%TO.P,SW7,C,C*%
%TO.N,GND*%
X150640000Y-104220000D03*
D20*
%TO.P,SW7,MP*%
%TO.N,N/C*%
X145040000Y-96720000D03*
X156240000Y-96720000D03*
D19*
%TO.P,SW7,S1,S1*%
%TO.N,Net-(U1-GPIO28{slash}ADC2{slash}A2)*%
X153140000Y-89720000D03*
%TO.P,SW7,S2,S2*%
%TO.N,GND*%
X148140000Y-89720000D03*
%TD*%
D17*
%TO.P,D3,1,VSS*%
%TO.N,GND*%
X152760000Y-84390000D03*
%TO.P,D3,2,DIN*%
%TO.N,Net-(D3-DIN)*%
X155960000Y-84390000D03*
%TO.P,D3,3,VDD*%
%TO.N,+5V*%
X155960000Y-79490000D03*
%TO.P,D3,4,DOUT*%
%TO.N,Net-(D3-DOUT)*%
X152760000Y-79490000D03*
%TD*%
D21*
%TO.N,GND*%
X154030000Y-85910000D03*
%TO.N,Net-(U1-GPIO28{slash}ADC2{slash}A2)*%
X140910000Y-90080000D03*
X136070000Y-108110000D03*
%TD*%
D22*
%TO.N,GND*%
X152760000Y-84640000D02*
X152760000Y-84390000D01*
X141200000Y-83540000D02*
X143920000Y-83540000D01*
X146233950Y-118341000D02*
X145589000Y-117696050D01*
X163988750Y-85566250D02*
X163165250Y-84742750D01*
X163988750Y-85566250D02*
X163988750Y-104616250D01*
X152630000Y-115790000D02*
X150079000Y-118341000D01*
X202088750Y-104616250D02*
X202088750Y-85566250D01*
X154030000Y-85910000D02*
X152760000Y-84640000D01*
X145696475Y-85316475D02*
X145589000Y-85423950D01*
X163988750Y-104616250D02*
X183038750Y-104616250D01*
X145589000Y-117696050D02*
X145589000Y-112451000D01*
X146622950Y-84390000D02*
X145696475Y-85316475D01*
X202088750Y-104616250D02*
X183038750Y-104616250D01*
X147892750Y-120527250D02*
X152630000Y-115790000D01*
X145589000Y-112451000D02*
X150640000Y-107400000D01*
X145589000Y-87169000D02*
X148140000Y-89720000D01*
X150079000Y-118341000D02*
X146233950Y-118341000D01*
X152760000Y-84390000D02*
X146622950Y-84390000D01*
X183038750Y-104616250D02*
X183038750Y-85566250D01*
X147577250Y-120527250D02*
X147892750Y-120527250D01*
X183038750Y-85566250D02*
X163988750Y-85566250D01*
X142090000Y-115040000D02*
X147577250Y-120527250D01*
X202088750Y-85566250D02*
X183038750Y-85566250D01*
X143920000Y-83540000D02*
X145696475Y-85316475D01*
X150640000Y-107400000D02*
X150640000Y-104220000D01*
X145589000Y-85423950D02*
X145589000Y-87169000D01*
%TO.N,+5V*%
X124640000Y-87542370D02*
X124640000Y-88620000D01*
X153629000Y-77159000D02*
X135023370Y-77159000D01*
X155960000Y-79490000D02*
X153629000Y-77159000D01*
X135023370Y-77159000D02*
X124640000Y-87542370D01*
X157541000Y-109179000D02*
X157541000Y-81071000D01*
X157541000Y-81071000D02*
X155960000Y-79490000D01*
X155830000Y-110890000D02*
X157541000Y-109179000D01*
%TO.N,Net-(D3-DIN)*%
X153561000Y-78439000D02*
X151959000Y-78439000D01*
X153561000Y-79723900D02*
X153561000Y-78439000D01*
X148059000Y-82339000D02*
X140053374Y-82339000D01*
X135863000Y-102797000D02*
X134800000Y-103860000D01*
X155960000Y-84390000D02*
X155960000Y-82122900D01*
X155960000Y-82122900D02*
X153561000Y-79723900D01*
X151959000Y-78439000D02*
X148059000Y-82339000D01*
X140053374Y-82339000D02*
X135863000Y-86529374D01*
X135863000Y-86529374D02*
X135863000Y-102797000D01*
%TO.N,Net-(D3-DOUT)*%
X154939000Y-114899000D02*
X154939000Y-81669000D01*
X154939000Y-81669000D02*
X152760000Y-79490000D01*
X155830000Y-115790000D02*
X154939000Y-114899000D01*
%TO.N,Net-(U1-GPIO0{slash}TX)*%
X139880000Y-103860000D02*
X139880000Y-115232000D01*
X133737000Y-109089000D02*
X133737000Y-99220310D01*
X123577000Y-86529374D02*
X133348374Y-76758000D01*
X157942000Y-109345100D02*
X162034150Y-113437250D01*
X123577000Y-89060310D02*
X123577000Y-86529374D01*
X133737000Y-99220310D02*
X123577000Y-89060310D01*
X162034150Y-113437250D02*
X202157750Y-113437250D01*
X155080000Y-76758000D02*
X157942000Y-79620000D01*
X202157750Y-113437250D02*
X204628750Y-110966250D01*
X157942000Y-79620000D02*
X157942000Y-109345100D01*
X133348374Y-76758000D02*
X155080000Y-76758000D01*
X139880000Y-115232000D02*
X133737000Y-109089000D01*
%TO.N,Net-(D1-A)*%
X144970000Y-109620000D02*
X142090000Y-112500000D01*
X146690000Y-109620000D02*
X144970000Y-109620000D01*
%TO.N,Net-(D2-A)*%
X146690000Y-78260000D02*
X143940000Y-78260000D01*
X143940000Y-78260000D02*
X141200000Y-81000000D01*
%TO.N,Net-(U1-3V3)*%
X146690000Y-117240000D02*
X146690000Y-112509892D01*
X154441000Y-93631000D02*
X146690000Y-85880000D01*
X146690000Y-112509892D02*
X154441000Y-104758892D01*
X154441000Y-104758892D02*
X154441000Y-93631000D01*
%TO.N,Net-(U1-GPIO28{slash}ADC2{slash}A2)*%
X136277000Y-94713000D02*
X136277000Y-107903000D01*
X140910000Y-90080000D02*
X136277000Y-94713000D01*
X136277000Y-107903000D02*
X136070000Y-108110000D01*
%TO.N,Net-(U1-GPIO27{slash}ADC1{slash}A1)*%
X140281000Y-115398100D02*
X140046100Y-115633000D01*
X140046100Y-115633000D02*
X138118000Y-115633000D01*
X153140000Y-104220000D02*
X151717000Y-102797000D01*
X127180000Y-104695000D02*
X127180000Y-103860000D01*
X140281000Y-106612626D02*
X140281000Y-115398100D01*
X151717000Y-102797000D02*
X144096626Y-102797000D01*
X144096626Y-102797000D02*
X140281000Y-106612626D01*
X138118000Y-115633000D02*
X127180000Y-104695000D01*
%TO.N,Net-(U1-GPIO26{slash}ADC0{slash}A0)*%
X148140000Y-104220000D02*
X140682000Y-111678000D01*
X140682000Y-115564200D02*
X140212200Y-116034000D01*
X135979000Y-116034000D02*
X124640000Y-104695000D01*
X124640000Y-104695000D02*
X124640000Y-103860000D01*
X140212200Y-116034000D02*
X135979000Y-116034000D01*
X140682000Y-111678000D02*
X140682000Y-115564200D01*
%TD*%
M02*
