%TF.GenerationSoftware,KiCad,Pcbnew,9.0.6*%
%TF.CreationDate,2026-01-24T13:35:07-03:00*%
%TF.ProjectId,macropadmaluu,6d616372-6f70-4616-946d-616c75752e6b,rev?*%
%TF.SameCoordinates,Original*%
%TF.FileFunction,Legend,Top*%
%TF.FilePolarity,Positive*%
%FSLAX46Y46*%
G04 Gerber Fmt 4.6, Leading zero omitted, Abs format (unit mm)*
G04 Created by KiCad (PCBNEW 9.0.6) date 2026-01-24 13:35:07*
%MOMM*%
%LPD*%
G01*
G04 APERTURE LIST*
%ADD10C,0.100000*%
%ADD11C,0.150000*%
%ADD12C,0.101600*%
%ADD13C,0.120000*%
%ADD14C,0.127000*%
%ADD15C,0.504000*%
G04 APERTURE END LIST*
D10*
X128812419Y-100111353D02*
X129812419Y-99444687D01*
X128812419Y-99444687D02*
X129812419Y-100111353D01*
X129812419Y-99063734D02*
X128812419Y-99063734D01*
X129526704Y-98635163D02*
X129526704Y-98158973D01*
X129812419Y-98730401D02*
X128812419Y-98397068D01*
X128812419Y-98397068D02*
X129812419Y-98063735D01*
X128812419Y-97539925D02*
X128812419Y-97349449D01*
X128812419Y-97349449D02*
X128860038Y-97254211D01*
X128860038Y-97254211D02*
X128955276Y-97158973D01*
X128955276Y-97158973D02*
X129145752Y-97111354D01*
X129145752Y-97111354D02*
X129479085Y-97111354D01*
X129479085Y-97111354D02*
X129669561Y-97158973D01*
X129669561Y-97158973D02*
X129764800Y-97254211D01*
X129764800Y-97254211D02*
X129812419Y-97349449D01*
X129812419Y-97349449D02*
X129812419Y-97539925D01*
X129812419Y-97539925D02*
X129764800Y-97635163D01*
X129764800Y-97635163D02*
X129669561Y-97730401D01*
X129669561Y-97730401D02*
X129479085Y-97778020D01*
X129479085Y-97778020D02*
X129145752Y-97778020D01*
X129145752Y-97778020D02*
X128955276Y-97730401D01*
X128955276Y-97730401D02*
X128860038Y-97635163D01*
X128860038Y-97635163D02*
X128812419Y-97539925D01*
X129812419Y-95920877D02*
X128812419Y-95920877D01*
X129288609Y-95920877D02*
X129288609Y-95349449D01*
X129812419Y-95349449D02*
X128812419Y-95349449D01*
X129288609Y-94873258D02*
X129288609Y-94539925D01*
X129812419Y-94397068D02*
X129812419Y-94873258D01*
X129812419Y-94873258D02*
X128812419Y-94873258D01*
X128812419Y-94873258D02*
X128812419Y-94397068D01*
X129812419Y-93397068D02*
X129336228Y-93730401D01*
X129812419Y-93968496D02*
X128812419Y-93968496D01*
X128812419Y-93968496D02*
X128812419Y-93587544D01*
X128812419Y-93587544D02*
X128860038Y-93492306D01*
X128860038Y-93492306D02*
X128907657Y-93444687D01*
X128907657Y-93444687D02*
X129002895Y-93397068D01*
X129002895Y-93397068D02*
X129145752Y-93397068D01*
X129145752Y-93397068D02*
X129240990Y-93444687D01*
X129240990Y-93444687D02*
X129288609Y-93492306D01*
X129288609Y-93492306D02*
X129336228Y-93587544D01*
X129336228Y-93587544D02*
X129336228Y-93968496D01*
X129288609Y-92968496D02*
X129288609Y-92635163D01*
X129812419Y-92492306D02*
X129812419Y-92968496D01*
X129812419Y-92968496D02*
X128812419Y-92968496D01*
X128812419Y-92968496D02*
X128812419Y-92492306D01*
X129717180Y-92063734D02*
X129764800Y-92016115D01*
X129764800Y-92016115D02*
X129812419Y-92063734D01*
X129812419Y-92063734D02*
X129764800Y-92111353D01*
X129764800Y-92111353D02*
X129717180Y-92063734D01*
X129717180Y-92063734D02*
X129812419Y-92063734D01*
X129431466Y-92063734D02*
X128860038Y-92111353D01*
X128860038Y-92111353D02*
X128812419Y-92063734D01*
X128812419Y-92063734D02*
X128860038Y-92016115D01*
X128860038Y-92016115D02*
X129431466Y-92063734D01*
X129431466Y-92063734D02*
X128812419Y-92063734D01*
D11*
X180651950Y-108489582D02*
X180699569Y-108346725D01*
X180699569Y-108346725D02*
X180699569Y-108108630D01*
X180699569Y-108108630D02*
X180651950Y-108013392D01*
X180651950Y-108013392D02*
X180604330Y-107965773D01*
X180604330Y-107965773D02*
X180509092Y-107918154D01*
X180509092Y-107918154D02*
X180413854Y-107918154D01*
X180413854Y-107918154D02*
X180318616Y-107965773D01*
X180318616Y-107965773D02*
X180270997Y-108013392D01*
X180270997Y-108013392D02*
X180223378Y-108108630D01*
X180223378Y-108108630D02*
X180175759Y-108299106D01*
X180175759Y-108299106D02*
X180128140Y-108394344D01*
X180128140Y-108394344D02*
X180080521Y-108441963D01*
X180080521Y-108441963D02*
X179985283Y-108489582D01*
X179985283Y-108489582D02*
X179890045Y-108489582D01*
X179890045Y-108489582D02*
X179794807Y-108441963D01*
X179794807Y-108441963D02*
X179747188Y-108394344D01*
X179747188Y-108394344D02*
X179699569Y-108299106D01*
X179699569Y-108299106D02*
X179699569Y-108061011D01*
X179699569Y-108061011D02*
X179747188Y-107918154D01*
X179699569Y-107584820D02*
X180699569Y-107346725D01*
X180699569Y-107346725D02*
X179985283Y-107156249D01*
X179985283Y-107156249D02*
X180699569Y-106965773D01*
X180699569Y-106965773D02*
X179699569Y-106727678D01*
X180032902Y-105918154D02*
X180699569Y-105918154D01*
X179651950Y-106156249D02*
X180366235Y-106394344D01*
X180366235Y-106394344D02*
X180366235Y-105775297D01*
X180651950Y-89439582D02*
X180699569Y-89296725D01*
X180699569Y-89296725D02*
X180699569Y-89058630D01*
X180699569Y-89058630D02*
X180651950Y-88963392D01*
X180651950Y-88963392D02*
X180604330Y-88915773D01*
X180604330Y-88915773D02*
X180509092Y-88868154D01*
X180509092Y-88868154D02*
X180413854Y-88868154D01*
X180413854Y-88868154D02*
X180318616Y-88915773D01*
X180318616Y-88915773D02*
X180270997Y-88963392D01*
X180270997Y-88963392D02*
X180223378Y-89058630D01*
X180223378Y-89058630D02*
X180175759Y-89249106D01*
X180175759Y-89249106D02*
X180128140Y-89344344D01*
X180128140Y-89344344D02*
X180080521Y-89391963D01*
X180080521Y-89391963D02*
X179985283Y-89439582D01*
X179985283Y-89439582D02*
X179890045Y-89439582D01*
X179890045Y-89439582D02*
X179794807Y-89391963D01*
X179794807Y-89391963D02*
X179747188Y-89344344D01*
X179747188Y-89344344D02*
X179699569Y-89249106D01*
X179699569Y-89249106D02*
X179699569Y-89011011D01*
X179699569Y-89011011D02*
X179747188Y-88868154D01*
X179699569Y-88534820D02*
X180699569Y-88296725D01*
X180699569Y-88296725D02*
X179985283Y-88106249D01*
X179985283Y-88106249D02*
X180699569Y-87915773D01*
X180699569Y-87915773D02*
X179699569Y-87677678D01*
X179699569Y-87391963D02*
X179699569Y-86772916D01*
X179699569Y-86772916D02*
X180080521Y-87106249D01*
X180080521Y-87106249D02*
X180080521Y-86963392D01*
X180080521Y-86963392D02*
X180128140Y-86868154D01*
X180128140Y-86868154D02*
X180175759Y-86820535D01*
X180175759Y-86820535D02*
X180270997Y-86772916D01*
X180270997Y-86772916D02*
X180509092Y-86772916D01*
X180509092Y-86772916D02*
X180604330Y-86820535D01*
X180604330Y-86820535D02*
X180651950Y-86868154D01*
X180651950Y-86868154D02*
X180699569Y-86963392D01*
X180699569Y-86963392D02*
X180699569Y-87249106D01*
X180699569Y-87249106D02*
X180651950Y-87344344D01*
X180651950Y-87344344D02*
X180604330Y-87391963D01*
X144774819Y-82236666D02*
X144298628Y-82569999D01*
X144774819Y-82808094D02*
X143774819Y-82808094D01*
X143774819Y-82808094D02*
X143774819Y-82427142D01*
X143774819Y-82427142D02*
X143822438Y-82331904D01*
X143822438Y-82331904D02*
X143870057Y-82284285D01*
X143870057Y-82284285D02*
X143965295Y-82236666D01*
X143965295Y-82236666D02*
X144108152Y-82236666D01*
X144108152Y-82236666D02*
X144203390Y-82284285D01*
X144203390Y-82284285D02*
X144251009Y-82331904D01*
X144251009Y-82331904D02*
X144298628Y-82427142D01*
X144298628Y-82427142D02*
X144298628Y-82808094D01*
X143870057Y-81855713D02*
X143822438Y-81808094D01*
X143822438Y-81808094D02*
X143774819Y-81712856D01*
X143774819Y-81712856D02*
X143774819Y-81474761D01*
X143774819Y-81474761D02*
X143822438Y-81379523D01*
X143822438Y-81379523D02*
X143870057Y-81331904D01*
X143870057Y-81331904D02*
X143965295Y-81284285D01*
X143965295Y-81284285D02*
X144060533Y-81284285D01*
X144060533Y-81284285D02*
X144203390Y-81331904D01*
X144203390Y-81331904D02*
X144774819Y-81903332D01*
X144774819Y-81903332D02*
X144774819Y-81284285D01*
X139584819Y-114508094D02*
X138584819Y-114508094D01*
X138584819Y-114508094D02*
X138584819Y-114269999D01*
X138584819Y-114269999D02*
X138632438Y-114127142D01*
X138632438Y-114127142D02*
X138727676Y-114031904D01*
X138727676Y-114031904D02*
X138822914Y-113984285D01*
X138822914Y-113984285D02*
X139013390Y-113936666D01*
X139013390Y-113936666D02*
X139156247Y-113936666D01*
X139156247Y-113936666D02*
X139346723Y-113984285D01*
X139346723Y-113984285D02*
X139441961Y-114031904D01*
X139441961Y-114031904D02*
X139537200Y-114127142D01*
X139537200Y-114127142D02*
X139584819Y-114269999D01*
X139584819Y-114269999D02*
X139584819Y-114508094D01*
X139584819Y-112984285D02*
X139584819Y-113555713D01*
X139584819Y-113269999D02*
X138584819Y-113269999D01*
X138584819Y-113269999D02*
X138727676Y-113365237D01*
X138727676Y-113365237D02*
X138822914Y-113460475D01*
X138822914Y-113460475D02*
X138870533Y-113555713D01*
X199701950Y-108489582D02*
X199749569Y-108346725D01*
X199749569Y-108346725D02*
X199749569Y-108108630D01*
X199749569Y-108108630D02*
X199701950Y-108013392D01*
X199701950Y-108013392D02*
X199654330Y-107965773D01*
X199654330Y-107965773D02*
X199559092Y-107918154D01*
X199559092Y-107918154D02*
X199463854Y-107918154D01*
X199463854Y-107918154D02*
X199368616Y-107965773D01*
X199368616Y-107965773D02*
X199320997Y-108013392D01*
X199320997Y-108013392D02*
X199273378Y-108108630D01*
X199273378Y-108108630D02*
X199225759Y-108299106D01*
X199225759Y-108299106D02*
X199178140Y-108394344D01*
X199178140Y-108394344D02*
X199130521Y-108441963D01*
X199130521Y-108441963D02*
X199035283Y-108489582D01*
X199035283Y-108489582D02*
X198940045Y-108489582D01*
X198940045Y-108489582D02*
X198844807Y-108441963D01*
X198844807Y-108441963D02*
X198797188Y-108394344D01*
X198797188Y-108394344D02*
X198749569Y-108299106D01*
X198749569Y-108299106D02*
X198749569Y-108061011D01*
X198749569Y-108061011D02*
X198797188Y-107918154D01*
X198749569Y-107584820D02*
X199749569Y-107346725D01*
X199749569Y-107346725D02*
X199035283Y-107156249D01*
X199035283Y-107156249D02*
X199749569Y-106965773D01*
X199749569Y-106965773D02*
X198749569Y-106727678D01*
X198749569Y-105918154D02*
X198749569Y-106108630D01*
X198749569Y-106108630D02*
X198797188Y-106203868D01*
X198797188Y-106203868D02*
X198844807Y-106251487D01*
X198844807Y-106251487D02*
X198987664Y-106346725D01*
X198987664Y-106346725D02*
X199178140Y-106394344D01*
X199178140Y-106394344D02*
X199559092Y-106394344D01*
X199559092Y-106394344D02*
X199654330Y-106346725D01*
X199654330Y-106346725D02*
X199701950Y-106299106D01*
X199701950Y-106299106D02*
X199749569Y-106203868D01*
X199749569Y-106203868D02*
X199749569Y-106013392D01*
X199749569Y-106013392D02*
X199701950Y-105918154D01*
X199701950Y-105918154D02*
X199654330Y-105870535D01*
X199654330Y-105870535D02*
X199559092Y-105822916D01*
X199559092Y-105822916D02*
X199320997Y-105822916D01*
X199320997Y-105822916D02*
X199225759Y-105870535D01*
X199225759Y-105870535D02*
X199178140Y-105918154D01*
X199178140Y-105918154D02*
X199130521Y-106013392D01*
X199130521Y-106013392D02*
X199130521Y-106203868D01*
X199130521Y-106203868D02*
X199178140Y-106299106D01*
X199178140Y-106299106D02*
X199225759Y-106346725D01*
X199225759Y-106346725D02*
X199320997Y-106394344D01*
X144774819Y-113596666D02*
X144298628Y-113929999D01*
X144774819Y-114168094D02*
X143774819Y-114168094D01*
X143774819Y-114168094D02*
X143774819Y-113787142D01*
X143774819Y-113787142D02*
X143822438Y-113691904D01*
X143822438Y-113691904D02*
X143870057Y-113644285D01*
X143870057Y-113644285D02*
X143965295Y-113596666D01*
X143965295Y-113596666D02*
X144108152Y-113596666D01*
X144108152Y-113596666D02*
X144203390Y-113644285D01*
X144203390Y-113644285D02*
X144251009Y-113691904D01*
X144251009Y-113691904D02*
X144298628Y-113787142D01*
X144298628Y-113787142D02*
X144298628Y-114168094D01*
X144774819Y-112644285D02*
X144774819Y-113215713D01*
X144774819Y-112929999D02*
X143774819Y-112929999D01*
X143774819Y-112929999D02*
X143917676Y-113025237D01*
X143917676Y-113025237D02*
X144012914Y-113120475D01*
X144012914Y-113120475D02*
X144060533Y-113215713D01*
X138694819Y-83008094D02*
X137694819Y-83008094D01*
X137694819Y-83008094D02*
X137694819Y-82769999D01*
X137694819Y-82769999D02*
X137742438Y-82627142D01*
X137742438Y-82627142D02*
X137837676Y-82531904D01*
X137837676Y-82531904D02*
X137932914Y-82484285D01*
X137932914Y-82484285D02*
X138123390Y-82436666D01*
X138123390Y-82436666D02*
X138266247Y-82436666D01*
X138266247Y-82436666D02*
X138456723Y-82484285D01*
X138456723Y-82484285D02*
X138551961Y-82531904D01*
X138551961Y-82531904D02*
X138647200Y-82627142D01*
X138647200Y-82627142D02*
X138694819Y-82769999D01*
X138694819Y-82769999D02*
X138694819Y-83008094D01*
X137790057Y-82055713D02*
X137742438Y-82008094D01*
X137742438Y-82008094D02*
X137694819Y-81912856D01*
X137694819Y-81912856D02*
X137694819Y-81674761D01*
X137694819Y-81674761D02*
X137742438Y-81579523D01*
X137742438Y-81579523D02*
X137790057Y-81531904D01*
X137790057Y-81531904D02*
X137885295Y-81484285D01*
X137885295Y-81484285D02*
X137980533Y-81484285D01*
X137980533Y-81484285D02*
X138123390Y-81531904D01*
X138123390Y-81531904D02*
X138694819Y-82103332D01*
X138694819Y-82103332D02*
X138694819Y-81484285D01*
X161601950Y-89439582D02*
X161649569Y-89296725D01*
X161649569Y-89296725D02*
X161649569Y-89058630D01*
X161649569Y-89058630D02*
X161601950Y-88963392D01*
X161601950Y-88963392D02*
X161554330Y-88915773D01*
X161554330Y-88915773D02*
X161459092Y-88868154D01*
X161459092Y-88868154D02*
X161363854Y-88868154D01*
X161363854Y-88868154D02*
X161268616Y-88915773D01*
X161268616Y-88915773D02*
X161220997Y-88963392D01*
X161220997Y-88963392D02*
X161173378Y-89058630D01*
X161173378Y-89058630D02*
X161125759Y-89249106D01*
X161125759Y-89249106D02*
X161078140Y-89344344D01*
X161078140Y-89344344D02*
X161030521Y-89391963D01*
X161030521Y-89391963D02*
X160935283Y-89439582D01*
X160935283Y-89439582D02*
X160840045Y-89439582D01*
X160840045Y-89439582D02*
X160744807Y-89391963D01*
X160744807Y-89391963D02*
X160697188Y-89344344D01*
X160697188Y-89344344D02*
X160649569Y-89249106D01*
X160649569Y-89249106D02*
X160649569Y-89011011D01*
X160649569Y-89011011D02*
X160697188Y-88868154D01*
X160649569Y-88534820D02*
X161649569Y-88296725D01*
X161649569Y-88296725D02*
X160935283Y-88106249D01*
X160935283Y-88106249D02*
X161649569Y-87915773D01*
X161649569Y-87915773D02*
X160649569Y-87677678D01*
X161649569Y-86772916D02*
X161649569Y-87344344D01*
X161649569Y-87058630D02*
X160649569Y-87058630D01*
X160649569Y-87058630D02*
X160792426Y-87153868D01*
X160792426Y-87153868D02*
X160887664Y-87249106D01*
X160887664Y-87249106D02*
X160935283Y-87344344D01*
X161601950Y-108489582D02*
X161649569Y-108346725D01*
X161649569Y-108346725D02*
X161649569Y-108108630D01*
X161649569Y-108108630D02*
X161601950Y-108013392D01*
X161601950Y-108013392D02*
X161554330Y-107965773D01*
X161554330Y-107965773D02*
X161459092Y-107918154D01*
X161459092Y-107918154D02*
X161363854Y-107918154D01*
X161363854Y-107918154D02*
X161268616Y-107965773D01*
X161268616Y-107965773D02*
X161220997Y-108013392D01*
X161220997Y-108013392D02*
X161173378Y-108108630D01*
X161173378Y-108108630D02*
X161125759Y-108299106D01*
X161125759Y-108299106D02*
X161078140Y-108394344D01*
X161078140Y-108394344D02*
X161030521Y-108441963D01*
X161030521Y-108441963D02*
X160935283Y-108489582D01*
X160935283Y-108489582D02*
X160840045Y-108489582D01*
X160840045Y-108489582D02*
X160744807Y-108441963D01*
X160744807Y-108441963D02*
X160697188Y-108394344D01*
X160697188Y-108394344D02*
X160649569Y-108299106D01*
X160649569Y-108299106D02*
X160649569Y-108061011D01*
X160649569Y-108061011D02*
X160697188Y-107918154D01*
X160649569Y-107584820D02*
X161649569Y-107346725D01*
X161649569Y-107346725D02*
X160935283Y-107156249D01*
X160935283Y-107156249D02*
X161649569Y-106965773D01*
X161649569Y-106965773D02*
X160649569Y-106727678D01*
X160744807Y-106394344D02*
X160697188Y-106346725D01*
X160697188Y-106346725D02*
X160649569Y-106251487D01*
X160649569Y-106251487D02*
X160649569Y-106013392D01*
X160649569Y-106013392D02*
X160697188Y-105918154D01*
X160697188Y-105918154D02*
X160744807Y-105870535D01*
X160744807Y-105870535D02*
X160840045Y-105822916D01*
X160840045Y-105822916D02*
X160935283Y-105822916D01*
X160935283Y-105822916D02*
X161078140Y-105870535D01*
X161078140Y-105870535D02*
X161649569Y-106441963D01*
X161649569Y-106441963D02*
X161649569Y-105822916D01*
D12*
X119913479Y-105223809D02*
X120427526Y-105223809D01*
X120427526Y-105223809D02*
X120488002Y-105193571D01*
X120488002Y-105193571D02*
X120518241Y-105163333D01*
X120518241Y-105163333D02*
X120548479Y-105102857D01*
X120548479Y-105102857D02*
X120548479Y-104981904D01*
X120548479Y-104981904D02*
X120518241Y-104921428D01*
X120518241Y-104921428D02*
X120488002Y-104891190D01*
X120488002Y-104891190D02*
X120427526Y-104860952D01*
X120427526Y-104860952D02*
X119913479Y-104860952D01*
X120548479Y-104225952D02*
X120548479Y-104588809D01*
X120548479Y-104407381D02*
X119913479Y-104407381D01*
X119913479Y-104407381D02*
X120004193Y-104467857D01*
X120004193Y-104467857D02*
X120064669Y-104528333D01*
X120064669Y-104528333D02*
X120094907Y-104588809D01*
D11*
X199701950Y-89439582D02*
X199749569Y-89296725D01*
X199749569Y-89296725D02*
X199749569Y-89058630D01*
X199749569Y-89058630D02*
X199701950Y-88963392D01*
X199701950Y-88963392D02*
X199654330Y-88915773D01*
X199654330Y-88915773D02*
X199559092Y-88868154D01*
X199559092Y-88868154D02*
X199463854Y-88868154D01*
X199463854Y-88868154D02*
X199368616Y-88915773D01*
X199368616Y-88915773D02*
X199320997Y-88963392D01*
X199320997Y-88963392D02*
X199273378Y-89058630D01*
X199273378Y-89058630D02*
X199225759Y-89249106D01*
X199225759Y-89249106D02*
X199178140Y-89344344D01*
X199178140Y-89344344D02*
X199130521Y-89391963D01*
X199130521Y-89391963D02*
X199035283Y-89439582D01*
X199035283Y-89439582D02*
X198940045Y-89439582D01*
X198940045Y-89439582D02*
X198844807Y-89391963D01*
X198844807Y-89391963D02*
X198797188Y-89344344D01*
X198797188Y-89344344D02*
X198749569Y-89249106D01*
X198749569Y-89249106D02*
X198749569Y-89011011D01*
X198749569Y-89011011D02*
X198797188Y-88868154D01*
X198749569Y-88534820D02*
X199749569Y-88296725D01*
X199749569Y-88296725D02*
X199035283Y-88106249D01*
X199035283Y-88106249D02*
X199749569Y-87915773D01*
X199749569Y-87915773D02*
X198749569Y-87677678D01*
X198749569Y-86820535D02*
X198749569Y-87296725D01*
X198749569Y-87296725D02*
X199225759Y-87344344D01*
X199225759Y-87344344D02*
X199178140Y-87296725D01*
X199178140Y-87296725D02*
X199130521Y-87201487D01*
X199130521Y-87201487D02*
X199130521Y-86963392D01*
X199130521Y-86963392D02*
X199178140Y-86868154D01*
X199178140Y-86868154D02*
X199225759Y-86820535D01*
X199225759Y-86820535D02*
X199320997Y-86772916D01*
X199320997Y-86772916D02*
X199559092Y-86772916D01*
X199559092Y-86772916D02*
X199654330Y-86820535D01*
X199654330Y-86820535D02*
X199701950Y-86868154D01*
X199701950Y-86868154D02*
X199749569Y-86963392D01*
X199749569Y-86963392D02*
X199749569Y-87201487D01*
X199749569Y-87201487D02*
X199701950Y-87296725D01*
X199701950Y-87296725D02*
X199654330Y-87344344D01*
X151184819Y-114078094D02*
X150184819Y-114078094D01*
X150184819Y-114078094D02*
X150184819Y-113839999D01*
X150184819Y-113839999D02*
X150232438Y-113697142D01*
X150232438Y-113697142D02*
X150327676Y-113601904D01*
X150327676Y-113601904D02*
X150422914Y-113554285D01*
X150422914Y-113554285D02*
X150613390Y-113506666D01*
X150613390Y-113506666D02*
X150756247Y-113506666D01*
X150756247Y-113506666D02*
X150946723Y-113554285D01*
X150946723Y-113554285D02*
X151041961Y-113601904D01*
X151041961Y-113601904D02*
X151137200Y-113697142D01*
X151137200Y-113697142D02*
X151184819Y-113839999D01*
X151184819Y-113839999D02*
X151184819Y-114078094D01*
X150518152Y-112649523D02*
X151184819Y-112649523D01*
X150137200Y-112887618D02*
X150851485Y-113125713D01*
X150851485Y-113125713D02*
X150851485Y-112506666D01*
X143847200Y-102753332D02*
X143894819Y-102610475D01*
X143894819Y-102610475D02*
X143894819Y-102372380D01*
X143894819Y-102372380D02*
X143847200Y-102277142D01*
X143847200Y-102277142D02*
X143799580Y-102229523D01*
X143799580Y-102229523D02*
X143704342Y-102181904D01*
X143704342Y-102181904D02*
X143609104Y-102181904D01*
X143609104Y-102181904D02*
X143513866Y-102229523D01*
X143513866Y-102229523D02*
X143466247Y-102277142D01*
X143466247Y-102277142D02*
X143418628Y-102372380D01*
X143418628Y-102372380D02*
X143371009Y-102562856D01*
X143371009Y-102562856D02*
X143323390Y-102658094D01*
X143323390Y-102658094D02*
X143275771Y-102705713D01*
X143275771Y-102705713D02*
X143180533Y-102753332D01*
X143180533Y-102753332D02*
X143085295Y-102753332D01*
X143085295Y-102753332D02*
X142990057Y-102705713D01*
X142990057Y-102705713D02*
X142942438Y-102658094D01*
X142942438Y-102658094D02*
X142894819Y-102562856D01*
X142894819Y-102562856D02*
X142894819Y-102324761D01*
X142894819Y-102324761D02*
X142942438Y-102181904D01*
X142894819Y-101848570D02*
X143894819Y-101610475D01*
X143894819Y-101610475D02*
X143180533Y-101419999D01*
X143180533Y-101419999D02*
X143894819Y-101229523D01*
X143894819Y-101229523D02*
X142894819Y-100991428D01*
X142894819Y-100705713D02*
X142894819Y-100039047D01*
X142894819Y-100039047D02*
X143894819Y-100467618D01*
X151314819Y-82678094D02*
X150314819Y-82678094D01*
X150314819Y-82678094D02*
X150314819Y-82439999D01*
X150314819Y-82439999D02*
X150362438Y-82297142D01*
X150362438Y-82297142D02*
X150457676Y-82201904D01*
X150457676Y-82201904D02*
X150552914Y-82154285D01*
X150552914Y-82154285D02*
X150743390Y-82106666D01*
X150743390Y-82106666D02*
X150886247Y-82106666D01*
X150886247Y-82106666D02*
X151076723Y-82154285D01*
X151076723Y-82154285D02*
X151171961Y-82201904D01*
X151171961Y-82201904D02*
X151267200Y-82297142D01*
X151267200Y-82297142D02*
X151314819Y-82439999D01*
X151314819Y-82439999D02*
X151314819Y-82678094D01*
X150314819Y-81773332D02*
X150314819Y-81154285D01*
X150314819Y-81154285D02*
X150695771Y-81487618D01*
X150695771Y-81487618D02*
X150695771Y-81344761D01*
X150695771Y-81344761D02*
X150743390Y-81249523D01*
X150743390Y-81249523D02*
X150791009Y-81201904D01*
X150791009Y-81201904D02*
X150886247Y-81154285D01*
X150886247Y-81154285D02*
X151124342Y-81154285D01*
X151124342Y-81154285D02*
X151219580Y-81201904D01*
X151219580Y-81201904D02*
X151267200Y-81249523D01*
X151267200Y-81249523D02*
X151314819Y-81344761D01*
X151314819Y-81344761D02*
X151314819Y-81630475D01*
X151314819Y-81630475D02*
X151267200Y-81725713D01*
X151267200Y-81725713D02*
X151219580Y-81773332D01*
D13*
%TO.C,SW4*%
X181133750Y-100171250D02*
X195103750Y-100171250D01*
X181133750Y-114141250D02*
X181133750Y-100171250D01*
X195103750Y-100171250D02*
X195103750Y-114141250D01*
X195103750Y-114141250D02*
X181133750Y-114141250D01*
%TO.C,SW3*%
X181133750Y-81121250D02*
X195103750Y-81121250D01*
X181133750Y-95091250D02*
X181133750Y-81121250D01*
X195103750Y-81121250D02*
X195103750Y-95091250D01*
X195103750Y-95091250D02*
X181133750Y-95091250D01*
%TO.C,R2*%
X145320000Y-78800000D02*
X145650000Y-78800000D01*
X145320000Y-85340000D02*
X145320000Y-78800000D01*
X145650000Y-85340000D02*
X145320000Y-85340000D01*
X147730000Y-85340000D02*
X148060000Y-85340000D01*
X148060000Y-78800000D02*
X147730000Y-78800000D01*
X148060000Y-85340000D02*
X148060000Y-78800000D01*
%TO.C,D1*%
X140854000Y-115330000D02*
X141010000Y-115330000D01*
X143170000Y-115330000D02*
X143326000Y-115330000D01*
X140854484Y-115330000D02*
G75*
G02*
X141010000Y-112098563I1235516J1560000D01*
G01*
X141010000Y-114810961D02*
G75*
G02*
X141010000Y-112729039I1080000J1040961D01*
G01*
X143170000Y-112098563D02*
G75*
G02*
X143325516Y-115330000I-1080000J-1671437D01*
G01*
X143170000Y-112729039D02*
G75*
G02*
X143170000Y-114810961I-1080000J-1040961D01*
G01*
%TO.C,SW6*%
X200183750Y-100171250D02*
X214153750Y-100171250D01*
X200183750Y-114141250D02*
X200183750Y-100171250D01*
X214153750Y-100171250D02*
X214153750Y-114141250D01*
X214153750Y-114141250D02*
X200183750Y-114141250D01*
%TO.C,R1*%
X145320000Y-110160000D02*
X145650000Y-110160000D01*
X145320000Y-116700000D02*
X145320000Y-110160000D01*
X145650000Y-116700000D02*
X145320000Y-116700000D01*
X147730000Y-116700000D02*
X148060000Y-116700000D01*
X148060000Y-110160000D02*
X147730000Y-110160000D01*
X148060000Y-116700000D02*
X148060000Y-110160000D01*
%TO.C,D2*%
X139964000Y-83830000D02*
X140120000Y-83830000D01*
X142280000Y-83830000D02*
X142436000Y-83830000D01*
X139964484Y-83830000D02*
G75*
G02*
X140120000Y-80598563I1235516J1560000D01*
G01*
X140120000Y-83310961D02*
G75*
G02*
X140120000Y-81229039I1080000J1040961D01*
G01*
X142280000Y-80598563D02*
G75*
G02*
X142435516Y-83830000I-1080000J-1671437D01*
G01*
X142280000Y-81229039D02*
G75*
G02*
X142280000Y-83310961I-1080000J-1040961D01*
G01*
%TO.C,SW1*%
X162083750Y-81121250D02*
X176053750Y-81121250D01*
X162083750Y-95091250D02*
X162083750Y-81121250D01*
X176053750Y-81121250D02*
X176053750Y-95091250D01*
X176053750Y-95091250D02*
X162083750Y-95091250D01*
%TO.C,SW2*%
X162083750Y-100171250D02*
X176053750Y-100171250D01*
X162083750Y-114141250D02*
X162083750Y-100171250D01*
X176053750Y-100171250D02*
X176053750Y-114141250D01*
X176053750Y-114141250D02*
X162083750Y-114141250D01*
D14*
%TO.C,U1*%
X120309000Y-100231272D02*
X120309000Y-92236000D01*
X120809000Y-91736000D02*
X121719000Y-91736000D01*
D10*
X121719000Y-89255000D02*
X121719000Y-103225000D01*
D14*
X121719000Y-89255000D02*
X121719000Y-103225000D01*
X121719000Y-100735000D02*
X120808728Y-100731272D01*
X140769000Y-87350000D02*
X123624000Y-87350000D01*
X140769000Y-105130000D02*
X123624000Y-105130000D01*
X142674000Y-103225000D02*
X142674000Y-89255000D01*
X120309000Y-92236000D02*
G75*
G02*
X120809000Y-91736000I500000J0D01*
G01*
X120808728Y-100731272D02*
G75*
G02*
X120309001Y-100231272I291J500018D01*
G01*
X121719000Y-89255000D02*
G75*
G02*
X123624000Y-87350000I1905000J0D01*
G01*
X123624000Y-105130000D02*
G75*
G02*
X121719000Y-103225000I1J1905001D01*
G01*
X140769000Y-87350000D02*
G75*
G02*
X142674000Y-89255000I0J-1905000D01*
G01*
X142674000Y-103225000D02*
G75*
G02*
X140769000Y-105130000I-1905001J1D01*
G01*
D15*
X122212000Y-105190000D02*
G75*
G02*
X121708000Y-105190000I-252000J0D01*
G01*
X121708000Y-105190000D02*
G75*
G02*
X122212000Y-105190000I252000J0D01*
G01*
X123092000Y-104047000D02*
G75*
G02*
X122588000Y-104047000I-252000J0D01*
G01*
X122588000Y-104047000D02*
G75*
G02*
X123092000Y-104047000I252000J0D01*
G01*
D13*
%TO.C,SW5*%
X200183750Y-81121250D02*
X214153750Y-81121250D01*
X200183750Y-95091250D02*
X200183750Y-81121250D01*
X214153750Y-81121250D02*
X214153750Y-95091250D01*
X214153750Y-95091250D02*
X200183750Y-95091250D01*
%TO.C,D4*%
X151480000Y-109840000D02*
X151480000Y-116390000D01*
X151480000Y-116390000D02*
X151930000Y-116840000D01*
X151930000Y-116840000D02*
X156980000Y-116840000D01*
X153330000Y-110640000D02*
X155130000Y-110640000D01*
X153330000Y-116040000D02*
X155130000Y-116040000D01*
X156980000Y-109840000D02*
X151480000Y-109840000D01*
X156980000Y-109840000D02*
X156980000Y-116840000D01*
%TO.C,SW7*%
X144740000Y-90620000D02*
X147140000Y-90620000D01*
X144740000Y-94720000D02*
X144740000Y-90620000D01*
X144740000Y-98720000D02*
X144740000Y-102820000D01*
X144740000Y-102820000D02*
X156540000Y-102820000D01*
X146540000Y-103920000D02*
X146840000Y-104220000D01*
X146540000Y-104520000D02*
X146540000Y-103920000D01*
X146840000Y-104220000D02*
X146540000Y-104520000D01*
X149340000Y-90620000D02*
X151940000Y-90620000D01*
X150140000Y-96720000D02*
X151140000Y-96720000D01*
X150640000Y-97220000D02*
X150640000Y-96220000D01*
X154140000Y-90620000D02*
X156540000Y-90620000D01*
X156540000Y-90620000D02*
X156540000Y-94720000D01*
X156540000Y-98720000D02*
X156540000Y-102820000D01*
X153640000Y-96720000D02*
G75*
G02*
X147640000Y-96720000I-3000000J0D01*
G01*
X147640000Y-96720000D02*
G75*
G02*
X153640000Y-96720000I3000000J0D01*
G01*
%TO.C,D3*%
X151610000Y-78440000D02*
X151610000Y-84990000D01*
X151610000Y-84990000D02*
X152060000Y-85440000D01*
X152060000Y-85440000D02*
X157110000Y-85440000D01*
X153460000Y-79240000D02*
X155260000Y-79240000D01*
X153460000Y-84640000D02*
X155260000Y-84640000D01*
X157110000Y-78440000D02*
X151610000Y-78440000D01*
X157110000Y-78440000D02*
X157110000Y-85440000D01*
%TD*%
M02*
