M48
; DRILL file {KiCad 9.0.6} date 2026-01-24T13:35:11-0300
; FORMAT={-:-/ absolute / metric / decimal}
; #@! TF.CreationDate,2026-01-24T13:35:11-03:00
; #@! TF.GenerationSoftware,Kicad,Pcbnew,9.0.6
; #@! TF.FileFunction,Plated,1,2,PTH
FMAT,2
METRIC
; #@! TA.AperFunction,Plated,PTH,ViaDrill
T1C0.300
; #@! TA.AperFunction,Plated,PTH,ComponentDrill
T2C0.800
; #@! TA.AperFunction,Plated,PTH,ComponentDrill
T3C0.889
; #@! TA.AperFunction,Plated,PTH,ComponentDrill
T4C0.900
; #@! TA.AperFunction,Plated,PTH,ComponentDrill
T5C1.000
; #@! TA.AperFunction,Plated,PTH,ComponentDrill
T6C1.500
%
G90
G05
T1
X136.07Y-108.11
X140.91Y-90.08
X154.03Y-85.91
T2
X146.69Y-78.26
X146.69Y-85.88
X146.69Y-109.62
X146.69Y-117.24
T3
X124.64Y-88.62
X124.64Y-103.86
X127.18Y-88.62
X127.18Y-103.86
X129.72Y-88.62
X129.72Y-103.86
X132.26Y-88.62
X132.26Y-103.86
X134.8Y-88.62
X134.8Y-103.86
X137.34Y-88.62
X137.34Y-103.86
X139.88Y-88.62
X139.88Y-103.86
T4
X141.2Y-81.0
X141.2Y-83.54
X142.09Y-112.5
X142.09Y-115.04
T5
X148.14Y-89.72
X148.14Y-104.22
X150.64Y-104.22
X153.14Y-89.72
X153.14Y-104.22
T6
X163.989Y-85.566
X163.989Y-104.616
X166.529Y-91.916
X166.529Y-110.966
X183.039Y-85.566
X183.039Y-104.616
X185.579Y-91.916
X185.579Y-110.966
X202.089Y-85.566
X202.089Y-104.616
X204.629Y-91.916
X204.629Y-110.966
T6
G00X145.04Y-97.37
M15
G01X145.04Y-96.07
M16
G05
G00X156.24Y-97.37
M15
G01X156.24Y-96.07
M16
G05
M30
